<svg xmlns="http://www.w3.org/2000/svg" viewBox="0 0 64 64">
  <rect width="64" height="64" rx="8" fill="#1a1a2e"/>
  <path fill="#C8A14B" d="M32 8l6 14 12-8-6 16 14-6-8 16h10l-4 10-8-4v10l-16 4-16-4V46l-8 4-4-10h10l-8-16 14 6-6-16 12 8z"/>
  <path fill="#D4AF37" d="M32 14l4 10.5 9-5.5-4.5 11.5 10-4-6 12h7l-3 7-6-3v7l-10.5 3-10.5-3v-7l-6 3-3-7h7l-6-12 10 4-4.5-11.5 9 5.5z"/>
  <path fill="#F0D060" d="M32 20l2.5 7.5 6-3.5-3 7.5 6.5-2.5-3.5 7.5h5l-2 4.5-4-2v4.5l-7.5 2-7.5-2V39l-4 2-2-4.5h5l-3.5-7.5 6.5 2.5-3-7.5 6 3.5z"/>
</svg>
